<?xml version="1.0" standalone="no"?>
<!DOCTYPE svg PUBLIC "-//W3C//DTD SVG 20010904//EN"
 "http://www.w3.org/TR/2001/REC-SVG-20010904/DTD/svg10.dtd">
<svg version="1.0" xmlns="http://www.w3.org/2000/svg"
 width="300.000000pt" height="300.000000pt" viewBox="0 0 300.000000 300.000000"
 preserveAspectRatio="xMidYMid meet">
<metadata>
Created by potrace 1.14, written by Peter Selinger 2001-2017
</metadata>
<g transform="translate(0.000000,300.000000) scale(0.100000,-0.100000)"
fill="#000000" stroke="none">
<path d="M1408 2860 c-44 -37 -78 -50 -127 -50 -31 0 -40 -5 -49 -26 -14 -30
-62 -52 -208 -96 l-108 -33 -8 -45 c-4 -25 -21 -63 -38 -85 -63 -84 -79 -125
-73 -195 5 -64 4 -66 -44 -140 -55 -85 -61 -127 -28 -195 17 -35 20 -58 17
-177 -1 -88 1 -138 8 -138 5 0 10 8 10 18 0 18 27 126 84 341 65 241 114 310
252 351 102 30 168 25 230 -18 51 -36 73 -39 151 -16 51 15 60 15 126 -1 130
-31 137 -39 91 -94 l-26 -31 39 0 c49 0 71 15 118 85 22 32 49 58 62 61 25 7
83 -13 83 -27 0 -5 9 -9 20 -9 35 0 77 -28 93 -62 9 -18 25 -56 37 -83 12 -30
39 -66 66 -90 l45 -40 9 -185 c8 -177 16 -230 39 -245 6 -3 11 -23 12 -43 0
-20 7 -59 14 -87 14 -57 12 -71 19 125 3 58 9 128 15 155 11 51 9 181 -6 381
-10 125 -17 143 -95 214 -64 59 -101 144 -92 212 5 42 2 52 -31 103 -34 54
-38 57 -68 51 -99 -21 -99 -21 -129 14 -26 32 -29 33 -65 22 -34 -11 -43 -9
-95 18 -32 17 -73 30 -93 30 -34 0 -75 27 -75 50 0 6 -31 10 -73 10 -66 0 -76
-3 -109 -30z"/>
<path d="M1487 2152 c-9 -9 -24 -59 -35 -111 -13 -68 -15 -89 -5 -76 7 10 16
41 19 68 5 37 12 51 28 57 17 7 18 9 4 9 -21 1 -21 2 -8 36 8 20 15 26 30 22
11 -3 23 -1 26 4 10 17 -43 9 -59 -9z"/>
<path d="M1154 2151 c9 -14 -20 -159 -35 -177 -12 -15 -12 -17 1 -12 17 5 32
44 52 136 14 59 14 62 -4 62 -11 0 -17 -4 -14 -9z"/>
<path d="M1258 2103 c16 -6 15 -55 -2 -79 -14 -18 -16 -18 -31 -3 -16 15 -16
19 -1 48 9 17 12 31 7 31 -14 0 -31 -34 -31 -62 0 -33 18 -50 41 -38 11 7 20
7 24 0 13 -22 20 -7 23 50 2 57 1 60 -20 59 -13 0 -17 -3 -10 -6z"/>
<path d="M1328 2098 c5 -7 15 -32 21 -55 12 -44 4 -78 -23 -95 -7 -5 -5 -8 4
-8 18 0 98 155 87 166 -4 4 -9 -2 -13 -12 -3 -10 -11 -32 -18 -48 l-12 -29
-14 46 c-8 29 -18 47 -28 47 -10 0 -12 -4 -4 -12z"/>
<path d="M1537 2092 c-16 -18 -22 -40 -19 -73 2 -22 29 -32 50 -19 15 8 14 9
-4 10 -39 0 -38 30 1 46 23 9 35 21 35 34 0 26 -40 27 -63 2z m43 -6 c0 -14
-29 -31 -38 -21 -6 6 18 35 29 35 5 0 9 -6 9 -14z"/>
<path d="M1630 2085 c5 -14 10 -37 10 -50 0 -13 4 -26 9 -29 8 -6 51 52 64 87
13 34 -13 6 -28 -30 -17 -40 -24 -39 -34 8 -4 18 -12 34 -19 37 -9 3 -10 -3
-2 -23z"/>
<path d="M1751 2089 c-41 -45 -11 -118 37 -90 14 9 13 10 -10 11 -41 0 -38 34
5 46 22 7 32 16 32 29 0 29 -39 31 -64 4z m49 -3 c0 -15 -37 -32 -47 -22 -9 8
17 36 33 36 8 0 14 -6 14 -14z"/>
<path d="M1856 2069 c-3 -20 -9 -44 -12 -53 -3 -9 -2 -16 3 -16 5 0 14 21 21
46 10 38 15 44 32 39 13 -4 20 -2 20 7 0 7 -12 13 -29 14 -26 1 -30 -3 -35
-37z"/>
<path d="M714 1593 c-3 -10 -16 -40 -29 -68 -16 -34 -25 -73 -27 -122 -2 -47
-9 -78 -20 -90 -8 -10 -19 -39 -22 -65 -4 -25 -14 -52 -21 -58 -19 -16 -19
-40 0 -68 11 -15 14 -32 9 -57 -4 -25 -1 -43 11 -61 12 -19 15 -37 11 -68 -19
-131 -19 -165 3 -201 11 -20 21 -49 21 -66 0 -23 14 -42 70 -95 38 -36 85 -89
104 -117 19 -29 76 -93 128 -144 81 -79 109 -99 199 -143 125 -61 219 -82 359
-84 88 0 124 5 220 31 146 40 198 63 340 156 160 105 194 131 226 180 15 23
38 58 51 78 13 19 23 50 23 70 0 18 12 59 26 89 24 51 26 62 21 158 -3 56 -1
105 4 108 5 3 9 31 9 62 0 36 6 66 16 80 14 21 14 27 -2 75 -26 78 -61 150
-94 188 -27 32 -29 32 -30 11 0 -12 7 -39 15 -59 23 -55 19 -109 -14 -167 -16
-28 -34 -78 -41 -111 -7 -33 -23 -79 -37 -102 -40 -68 -247 -263 -280 -263 -9
0 -35 20 -59 44 -49 48 -55 76 -27 124 14 25 15 33 3 61 -7 18 -25 38 -40 46
-14 7 -39 32 -53 54 -34 51 -123 111 -175 118 -24 3 -60 -1 -91 -12 -45 -15
-53 -15 -72 -2 -15 11 -29 13 -52 6 -18 -5 -43 -9 -56 -9 -36 0 -135 -77 -245
-190 -54 -56 -109 -106 -122 -111 -35 -13 -72 5 -132 64 -76 74 -118 135 -147
211 -30 80 -31 111 -6 194 11 34 22 97 26 140 4 42 13 96 21 120 10 31 11 48
4 63 -13 24 -19 24 -26 2z m869 -563 c35 -16 68 -30 74 -30 31 0 153 -147 153
-184 0 -32 -29 -91 -65 -135 -57 -67 -140 -25 -133 69 l3 45 -89 7 c-79 7 -91
6 -117 -12 -15 -11 -38 -40 -51 -63 -32 -58 -59 -59 -130 -6 -66 49 -85 85
-72 137 8 33 14 38 53 48 24 5 53 19 65 30 11 12 33 29 48 38 28 19 178 86
190 86 5 0 37 -13 71 -30z"/>
</g>
</svg>
