<svg id="Layer_1" data-name="Layer 1" xmlns="http://www.w3.org/2000/svg" viewBox="0 0 1920 1080"><defs><style>.cls-1{fill:#fff;}</style></defs><path class="cls-1" d="M0,0H1920V1080H0ZM736,648c-5.94-6.65-12.18-13.07-17.77-20-10-12.44-13-28.23-19.41-42.37-2.64-5.77-1.65-11.26-.68-16.86.53-3.08,2.15-6,2.91-9,2.45-9.82,6-19.6,6.59-29.55.36-5.71,1.86-10.86,2.7-16.29.81-5.2.62-10.55,1-15.82a20.14,20.14,0,0,1,1.13-4.67c1.68-5.13,4.48-10.18,4.78-15.38.18-3.09-2.87-8.19-5.62-9.19-4-1.43-4.07,3.74-4.79,6.56-1.83,7.12-3.59,14.13-9.12,19.59a9.63,9.63,0,0,0-2.42,5.85c-.52,8.46-.26,17-1,25.41-.61,6.42-1.08,13.22-7.59,17.42-1.29.83-1.81,3.46-2,5.32-.51,6.6-.72,13.23-1,18.85-3.11,2.43-5.9,4-7.87,6.31s1,5,.65,8c-.36,3.22,3.57,7,5.79,10.4,2,3,2.24,5.8-.27,8.59-3.57,4-3,8.16-.53,12.36,1.26,2.15,2.69,4.2,4.08,6.27,2.6,3.85,4,7.84,2.68,12.62-2,7.36-4.13,14.72-5.44,22.22-2,11.65-1.48,23,6.38,32.89,4.15,5.21,5.26,10.9,2.64,17.28a4.34,4.34,0,0,0,1.1,3.88c3.23,2.7,7.13,4.66,10.14,7.56,13.93,13.47,27.64,27.15,37.55,44.08a39.51,39.51,0,0,0,5.74,7.41c7.92,8.09,16.28,15.77,23.94,24.1a122.81,122.81,0,0,0,35.81,26.52c3.11,1.56,6.16,3.26,9.33,4.71,10.21,4.7,20.07,10.75,30.78,13.6,14.16,3.76,28.95,5.32,43.56,7.19,8.54,1.1,17.34,2,25.85,1.12a246.89,246.89,0,0,0,33.72-6.12c24.87-6,49.63-12.4,71.37-26.92,16.73-11.17,33.54-22.23,50.63-32.84,14.36-8.92,25.56-20.4,33-35.64a32.4,32.4,0,0,1,7.58-9.76c3.93-3.47,4.11-7.27,3.93-12.06a38.93,38.93,0,0,1,2.26-14.84c2.82-7.5,6.81-14.57,10.28-21.84a6,6,0,0,0,.6-2.38c.17-10.82.47-21.64.32-32.46a27.59,27.59,0,0,0-2.22-9.56c-2.06-5.12-.85-9.21,3.27-12.37,2.35-1.81,2.87-3.43,2.09-6.31-2.62-9.74-3.26-19.42,3.41-28,2.51-3.26,2.63-6.57,1.56-10.32-6.44-22.64-14.91-44.26-31-61.9-3.42,4.39-3.45,6.84-1.52,12,2.65,7.11,5.48,14.3,6.85,21.71,1.86,10.16-1.62,19.32-7.93,27.46-5.36,6.92-8.76,14.26-9.31,23.56-.48,8-3.19,16.38-6.84,23.61-9.54,18.86-25.6,32.43-40.65,46.66-7.17,6.77-15,12.81-22.53,19.24-5.25,4.5-8,5.35-13.7,1.73a52.62,52.62,0,0,1-12-10.84,52.06,52.06,0,0,1-8.31-13.87c-1.78-4.55-.34-8.93,4-12.35a10.51,10.51,0,0,0,3.4-7c.55-9.2-1.94-17-11.41-21.05A21.27,21.27,0,0,1,976,622.4c-2.57-4.88-5.77-9.8-9.81-13.47A97.3,97.3,0,0,0,929.43,588a13.21,13.21,0,0,0-7.16-.18c-7.64,2.21-15.18,4.78-22.7,7.37-4,1.39-7.18,1.15-10.17-2.44-2.38-2.86-5.29-4-9.63-2.16s-9.29,1.64-14,2.31c-3.2.46-7.1-.15-9.48,1.48-11,7.56-22.18,15.16-32.3,23.88-8.12,7-14.76,15.67-22.19,23.46-5.83,6.11-12.23,11.69-17.72,18.07-10.07,11.69-24.72,12-35.14,1.39Zm365-143.18,2.42.45c.56-1.82,1.51-3.61,1.61-5.44.16-2.78-1.35-6.15-.24-8.29,2.93-5.66.56-10.91.07-16.33-.26-2.81-1-5.68-.69-8.42,1.63-13.65,3.58-27.27,5.33-40.92,1.43-11.15,4.31-22.26.91-33.58a8.14,8.14,0,0,1,.36-3.87c2.89-12.17,1.45-24.33-2.18-35.87a51.25,51.25,0,0,1-1.83-23c2.07-15.18.18-29.26-11.32-40.63-4.72-4.67-9.61-9.18-14.5-13.69s-9.83-8.42-11.92-15a158.76,158.76,0,0,0-5.86-15.68c-2.84-6.5-4.67-13-.84-19.57,2.79-4.76,2-8.7-1-12.91s-6.27-8.66-8.45-13.44c-5.64-12.34-12-14.84-23.92-8.7-11.77,6.05-19.73,3.41-25.69-8.51a11.36,11.36,0,0,1-.87-1.79c-.87-3-2.46-3.9-5.58-2.77-4,1.46-8.26,2.47-12.42,3.62a13.31,13.31,0,0,1-12.21-2.16c-9.55-7-19.9-11.69-32.25-11.43-8.5.19-13-3.16-14.58-10.15-.91-4.13-2.83-5.2-6.52-4.69a38.64,38.64,0,0,1-5.45.59c-6.44-.08-13,.18-19.29-.69-2.88-.4-4.85-.63-7.12,1.38-5.83,5.15-11.53,10.57-17.94,14.91-3.3,2.23-7.94,2.89-12.07,3.36-5.7.66-11.51.33-17.25.77-1,.07-2.38,1.7-2.69,2.85a19.77,19.77,0,0,1-10.73,13.13A174.25,174.25,0,0,1,804.08,197c-13.6,4.26-27.37,8-41.07,11.92-4,1.17-6,3.24-6.25,8.11-.47,9.7-2.63,19.33-9.75,26.58-9,9.11-14.8,20-19.35,31.66a11.54,11.54,0,0,0-.28,7.47c4.75,13.27,3,25.43-5.25,36.78-2.44,3.37-4.72,6.85-7,10.31-1.2,1.8-2.26,3.7-3.47,5.49-7.55,11.17-8.67,22.75-2.18,34.76a62.84,62.84,0,0,1,7.54,37c-.92,8.93-1.65,17.87-2.63,26.79A40.72,40.72,0,0,0,717.62,455c.71-2.41,1.12-3.57,1.39-4.76,2.59-11.64,4.84-23.37,7.83-34.9,3.78-14.57,8.51-28.9,12.21-43.49,5.29-20.92,10.15-42,20.15-61.29,7.12-13.77,16.44-25.39,31.95-30.38,6.15-2,12.3-4,18.53-5.7,20.63-5.61,39.86-4.52,55.86,11.88,4.66,4.78,10.6,4.19,16.38,3.09,3.4-.64,6.66-2,10-3,4-1.19,7.91-2.47,11.92-3.51,6.8-1.75,13.25-.89,20,1.41,7.79,2.65,16.07,3.83,24.12,5.74,3.74.89,7.54,2.7,7.58,6.81,0,2.89-1.88,6.07-3.64,8.61-2.38,3.45-5.46,6.41-9,10.44,5.09.24,9.87,1.18,14.42.51,9.12-1.35,15.38-7.54,20.66-14.58,3.88-5.17,7-10.9,11-16,6-7.7,14.79-9.11,23.09-4.05a30.27,30.27,0,0,1,6,4.51,11.41,11.41,0,0,0,9.79,3.74c5.87-.49,10.22,2.65,13.64,7a42.76,42.76,0,0,1,5.5,8.87c3.5,7.71,6.58,15.61,10,23.36,2.95,6.74,6.34,13.19,13.44,16.6a19.63,19.63,0,0,1,11.57,16.36c1,9.41,1.5,18.87,1.95,28.33.83,17.76,1.1,35.55,2.38,53.28.45,6.37,1.35,13.27,7.46,17.77,1.26.92,1.88,3.16,2.15,4.9.87,5.73,1.41,11.52,2.17,17.28C1098.94,490.8,1100,497.81,1100.94,504.82Zm-210.51-156c.35.87,1.66,2.48,1.44,3.85q-2.25,14-5.1,27.92c-.82,4-2.75,6.95-7.73,4.6-.67-.32-1.85.45-2.8.71.85.69,1.65,1.89,2.54,2,4.28.37,8.11-1,10.1-4.95a53,53,0,0,0,4-11.16c1.73-7.06,3-14.22,4.49-21.24l7.85-1.36c-.08-.59-.16-1.19-.25-1.78l-7.3-.75c1.34-4,2.1-8,4-11.41,1.11-2,4-3.14,6.27-4,.43-.16,2,3,3.15,4.61a6.79,6.79,0,0,0,1.31,1c.56-2.34,1-4.37,1.81-7.57-2.82,0-5.26-.4-7.52.07-7,1.44-10.24,6.72-12.65,12.86A54.06,54.06,0,0,1,890.43,348.84ZM852.6,346a42.85,42.85,0,0,1-5.09-.26c-11.74-1.95-20.92,6-20.42,17.89.16,3.83,1,7.54,5.07,9.56s6.12-1,8.83-2.69l1.68-1c1.49,5.55,4.84,5.05,8.88,3.11-3.73-1.85-3.86-2-3.15-5.64C849.76,360,851.18,353.06,852.6,346Zm19.72,21.29-1.38-.32c-1.34-5.25-2.52-10.56-4.06-15.76-2-6.78-3.49-7.36-9.08-5.08,1.4,2,3.45,3.85,4.31,6.19,1.64,4.5,2.17,9.41,3.94,13.84,2.89,7.22-.39,12.39-4.87,17.27-1.49,1.61-3.51,2.74-5.71,4.42,4.18-.09,8.1,1.43,10.38-3.65,2.77-6.2,6.26-12.07,9.22-18.18,3.21-6.62,6.15-13.37,9.5-20.69-6,1-5.75,1-6.89,5.08C876.09,356.11,874.13,361.69,872.32,367.31Zm-55.55-35.09c.37,2.48,1.29,4.8.94,6.93-1.41,8.67-3.3,17.26-4.86,25.91-1.41,7.82-3.08,15.41-11.93,18.65,8.49.09,14-4.4,16-13.36,2.29-10.19,4-20.51,6.21-30.71.58-2.65,2.33-5.05,3.47-7.42Zm93.92,28.35c4.33-1.13,8.4-1.95,12.29-3.26s6.49-4,5-8.36c-1.37-4.08-5.19-4.31-8.76-3.75-7,1.12-12,6.41-13.64,14.12-1.28,6,.59,11.3,4.79,13.54,4.42,2.34,10.27.93,14.7-3.56C912.1,370.09,910.38,369.06,910.69,360.57Zm52.87,0c4.24-1.08,8.31-1.82,12.16-3.19,4.83-1.72,6.9-5.23,5.26-8.67-1.91-4-5.63-4.21-9.41-3.35-7.24,1.63-11.9,7-13.23,15.12-.93,5.66,1.36,10.7,5.75,12.6,4.62,2,10.33.38,13.95-4C965.92,370.83,963.72,369.59,963.56,360.6Zm-24.8,13.63c7.6-9.3,14.74-17.47,17.21-29.06-5.21,1.41-4.72,1.57-6.25,6.22-1.68,5.1-4.38,9.87-6.63,14.79l-1.56-.63c-.78-4.7-1.48-9.41-2.34-14.09-1.33-7.21-2.28-7.68-8.44-5.19C938.05,353.61,934.73,364.3,938.76,374.23Zm50-28.38c.56,1.91,1.65,3.64,1.41,5.16-1.14,7.18-2.65,14.29-4.08,21.71h4.78c1.35-6.36,2.51-12.71,4.15-18.92a5.83,5.83,0,0,1,3.72-3.56c1.17-.25,2.8,1.46,4.15,2.42a11.59,11.59,0,0,1,1.67,2.15c.63-3.65,1.11-6.51,1.76-10.29L996.2,348.4C994.79,343.34,991.27,345,988.76,345.85Z"/><path d="M749,661.18c10.42,10.58,25.07,10.3,35.14-1.39,5.49-6.38,11.89-12,17.72-18.07,7.43-7.79,14.07-16.48,22.19-23.46,10.12-8.72,21.25-16.32,32.3-23.88,2.38-1.63,6.28-1,9.48-1.48,4.7-.67,9.76-.51,14-2.31s7.25-.7,9.63,2.16c3,3.59,6.16,3.83,10.17,2.44,7.52-2.59,15.06-5.16,22.7-7.37a13.21,13.21,0,0,1,7.16.18,97.3,97.3,0,0,1,36.75,20.93c4,3.67,7.24,8.59,9.81,13.47a21.27,21.27,0,0,0,10.51,10.15c9.47,4.08,12,11.85,11.41,21.05a10.51,10.51,0,0,1-3.4,7c-4.34,3.42-5.78,7.8-4,12.35a52.06,52.06,0,0,0,8.31,13.87,52.62,52.62,0,0,0,12,10.84c5.67,3.62,8.45,2.77,13.7-1.73,7.5-6.43,15.36-12.47,22.53-19.24,15-14.23,31.11-27.8,40.65-46.66,3.65-7.23,6.36-15.6,6.84-23.61.55-9.3,4-16.64,9.31-23.56,6.31-8.14,9.79-17.3,7.93-27.46-1.37-7.41-4.2-14.6-6.85-21.71-1.93-5.17-1.9-7.62,1.52-12,16.1,17.64,24.57,39.26,31,61.9,1.07,3.75,1,7.06-1.56,10.32-6.67,8.61-6,18.29-3.41,28,.78,2.88.26,4.5-2.09,6.31-4.12,3.16-5.33,7.25-3.27,12.37a27.59,27.59,0,0,1,2.22,9.56c.15,10.82-.15,21.64-.32,32.46a6,6,0,0,1-.6,2.38c-3.47,7.27-7.46,14.34-10.28,21.84a38.93,38.93,0,0,0-2.26,14.84c.18,4.79,0,8.59-3.93,12.06a32.4,32.4,0,0,0-7.58,9.76c-7.46,15.24-18.66,26.72-33,35.64-17.09,10.61-33.9,21.67-50.63,32.84-21.74,14.52-46.5,20.92-71.37,26.92A246.89,246.89,0,0,1,915.63,845c-8.51.83-17.31,0-25.85-1.12-14.61-1.87-29.4-3.43-43.56-7.19-10.71-2.85-20.57-8.9-30.78-13.6-3.17-1.45-6.22-3.15-9.33-4.71a122.81,122.81,0,0,1-35.81-26.52c-7.66-8.33-16-16-23.94-24.1a39.51,39.51,0,0,1-5.74-7.41c-9.91-16.93-23.62-30.61-37.55-44.08-3-2.9-6.91-4.86-10.14-7.56a4.34,4.34,0,0,1-1.1-3.88c2.62-6.38,1.51-12.07-2.64-17.28-7.86-9.87-8.41-21.24-6.38-32.89,1.31-7.5,3.43-14.86,5.44-22.22,1.3-4.78-.08-8.77-2.68-12.62-1.39-2.07-2.82-4.12-4.08-6.27-2.49-4.2-3-8.39.53-12.36,2.51-2.79,2.23-5.59.27-8.59-2.22-3.42-6.15-7.18-5.79-10.4.34-3-2.64-5.7-.65-8s4.76-3.88,7.87-6.31c.27-5.62.48-12.25,1-18.85.15-1.86.67-4.49,2-5.32,6.51-4.2,7-11,7.59-17.42.79-8.43.53-16.95,1-25.41a9.63,9.63,0,0,1,2.42-5.85c5.53-5.46,7.29-12.47,9.12-19.59.72-2.82.83-8,4.79-6.56,2.75,1,5.8,6.1,5.62,9.19-.3,5.2-3.1,10.25-4.78,15.38a20.14,20.14,0,0,0-1.13,4.67c-.4,5.27-.21,10.62-1,15.82-.84,5.43-2.34,10.58-2.7,16.29-.63,9.95-4.14,19.73-6.59,29.55-.76,3.06-2.38,5.93-2.91,9-1,5.6-2,11.09.68,16.86,6.45,14.14,9.39,29.93,19.41,42.37,5.59,6.94,11.83,13.36,17.77,20ZM918,667.59v.07c1.66.07,3.33.12,5,.23,9.25.58,10.82,3.05,7.29,11.43-3,7.13,1.07,18.65,8.4,23.7,6.78,4.68,13.6,3.56,20.75-2.8,9-8,13.29-18.85,18.32-29.27,3-6.14,1.94-11.8-2.37-17-4.09-5-7.79-10.27-12-15.09-7.84-8.86-14.65-19.16-27.75-21.25-1-.17-1.88-1.37-2.92-1.85-7.95-3.65-15.82-7.5-23.95-10.7a12.1,12.1,0,0,0-8.1.36c-10,4-19.85,8.47-29.8,12.65-8.2,3.45-16.06,7.4-21.87,14.4-5.05,6.07-11,9.74-19.32,9.56-5.09-.11-9.63,2.12-11.09,7.58-2.69,10.1-2.79,20.37,5,28.09A127.43,127.43,0,0,0,846,694.81c8.3,5.13,18,2,20.8-8.09,2.51-9.05,8.76-14.17,15.94-18.71a13.75,13.75,0,0,1,7.39-2.08C899.46,666.23,908.73,667,918,667.59Z"/><path d="M1100.94,504.82c-1-7-2-14-2.92-21-.76-5.76-1.3-11.55-2.17-17.28-.27-1.74-.89-4-2.15-4.9-6.11-4.5-7-11.4-7.46-17.77-1.28-17.73-1.55-35.52-2.38-53.28-.45-9.46-.95-18.92-1.95-28.33a19.63,19.63,0,0,0-11.57-16.36c-7.1-3.41-10.49-9.86-13.44-16.6-3.39-7.75-6.47-15.65-10-23.36a42.76,42.76,0,0,0-5.5-8.87c-3.42-4.32-7.77-7.46-13.64-7a11.41,11.41,0,0,1-9.79-3.74,30.27,30.27,0,0,0-6-4.51c-8.3-5.06-17.13-3.65-23.09,4.05-4,5.11-7.12,10.84-11,16-5.28,7-11.54,13.23-20.66,14.58-4.55.67-9.33-.27-14.42-.51,3.53-4,6.61-7,9-10.44,1.76-2.54,3.66-5.72,3.64-8.61,0-4.11-3.84-5.92-7.58-6.81-8-1.91-16.33-3.09-24.12-5.74-6.73-2.3-13.18-3.16-20-1.41-4,1-8,2.32-11.92,3.51-3.33,1-6.59,2.37-10,3-5.78,1.1-11.72,1.69-16.38-3.09-16-16.4-35.23-17.49-55.86-11.88-6.23,1.7-12.38,3.71-18.53,5.7-15.51,5-24.83,16.61-31.95,30.38-10,19.33-14.86,40.37-20.15,61.29-3.7,14.59-8.43,28.92-12.21,43.49-3,11.53-5.24,23.26-7.83,34.9-.27,1.19-.68,2.35-1.39,4.76a40.72,40.72,0,0,1-3.25-21.13c1-8.92,1.71-17.86,2.63-26.79a62.84,62.84,0,0,0-7.54-37c-6.49-12-5.37-23.59,2.18-34.76,1.21-1.79,2.27-3.69,3.47-5.49,2.3-3.46,4.58-6.94,7-10.31,8.22-11.35,10-23.51,5.25-36.78a11.54,11.54,0,0,1,.28-7.47c4.55-11.68,10.4-22.55,19.35-31.66,7.12-7.25,9.28-16.88,9.75-26.58.24-4.87,2.25-6.94,6.25-8.11,13.7-4,27.47-7.66,41.07-11.92a174.25,174.25,0,0,0,22.19-8.65A19.77,19.77,0,0,0,837,175.2c.31-1.15,1.7-2.78,2.69-2.85,5.74-.44,11.55-.11,17.25-.77,4.13-.47,8.77-1.13,12.07-3.36,6.41-4.34,12.11-9.76,17.94-14.91,2.27-2,4.24-1.78,7.12-1.38,6.34.87,12.85.61,19.29.69a38.64,38.64,0,0,0,5.45-.59c3.69-.51,5.61.56,6.52,4.69,1.53,7,6.08,10.34,14.58,10.15,12.35-.26,22.7,4.44,32.25,11.43a13.31,13.31,0,0,0,12.21,2.16c4.16-1.15,8.37-2.16,12.42-3.62,3.12-1.13,4.71-.18,5.58,2.77a11.36,11.36,0,0,0,.87,1.79c6,11.92,13.92,14.56,25.69,8.51,12-6.14,18.28-3.64,23.92,8.7,2.18,4.78,5.43,9.1,8.45,13.44s3.75,8.15,1,12.91c-3.83,6.54-2,13.07.84,19.57a158.76,158.76,0,0,1,5.86,15.68c2.09,6.6,7.17,10.63,11.92,15s9.78,9,14.5,13.69c11.5,11.37,13.39,25.45,11.32,40.63a51.25,51.25,0,0,0,1.83,23c3.63,11.54,5.07,23.7,2.18,35.87a8.14,8.14,0,0,0-.36,3.87c3.4,11.32.52,22.43-.91,33.58-1.75,13.65-3.7,27.27-5.33,40.92-.33,2.74.43,5.61.69,8.42.49,5.42,2.86,10.67-.07,16.33-1.11,2.14.4,5.51.24,8.29-.1,1.83-1,3.62-1.61,5.44Z"/><path d="M890.43,348.84a54.06,54.06,0,0,0,3.66-6.6c2.41-6.14,5.66-11.42,12.65-12.86,2.26-.47,4.7-.07,7.52-.07-.76,3.2-1.25,5.23-1.81,7.57a6.79,6.79,0,0,1-1.31-1c-1.11-1.6-2.72-4.77-3.15-4.61-2.31.83-5.16,2-6.27,4-1.91,3.37-2.67,7.38-4,11.41l7.3.75c.09.59.17,1.19.25,1.78l-7.85,1.36c-1.46,7-2.76,14.18-4.49,21.24a53,53,0,0,1-4,11.16c-2,3.93-5.82,5.32-10.1,4.95-.89-.07-1.69-1.27-2.54-2,1-.26,2.13-1,2.8-.71,5,2.35,6.91-.64,7.73-4.6q2.87-13.91,5.1-27.92C892.09,351.32,890.78,349.71,890.43,348.84Z"/><path d="M852.6,346c-1.42,7-2.84,14-4.2,20.94-.71,3.64-.58,3.79,3.15,5.64-4,1.94-7.39,2.44-8.88-3.11l-1.68,1c-2.71,1.64-4.9,4.66-8.83,2.69s-4.91-5.73-5.07-9.56c-.5-11.93,8.68-19.84,20.42-17.89A42.85,42.85,0,0,0,852.6,346Zm-22,16c2.43,3.18,4.06,7.35,6.15,7.59,3.72.43,7-2.07,7.53-6.76.35-3.28,1.35-6.47,1.77-9.74a31.34,31.34,0,0,0-.22-5.46c-2.5.26-6.14-.41-7.27,1C835.49,352.39,833.46,357,830.62,362Z"/><path d="M872.32,367.31c1.81-5.62,3.77-11.2,5.36-16.88,1.14-4.06.92-4.12,6.89-5.08-3.35,7.32-6.29,14.07-9.5,20.69-3,6.11-6.45,12-9.22,18.18-2.28,5.08-6.2,3.56-10.38,3.65,2.2-1.68,4.22-2.81,5.71-4.42,4.48-4.88,7.76-10.05,4.87-17.27-1.77-4.43-2.3-9.34-3.94-13.84-.86-2.34-2.91-4.24-4.31-6.19,5.59-2.28,7.07-1.7,9.08,5.08,1.54,5.2,2.72,10.51,4.06,15.76Z"/><path d="M816.77,332.22h9.84c-1.14,2.37-2.89,4.77-3.47,7.42-2.25,10.2-3.92,20.52-6.21,30.71-2,9-7.52,13.45-16,13.36,8.85-3.24,10.52-10.83,11.93-18.65,1.56-8.65,3.45-17.24,4.86-25.91C818.06,337,817.14,334.7,816.77,332.22Z"/><path d="M910.69,360.57c-.31,8.49,1.41,9.52,14.42,8.73-4.43,4.49-10.28,5.9-14.7,3.56-4.2-2.24-6.07-7.51-4.79-13.54,1.65-7.71,6.6-13,13.64-14.12,3.57-.56,7.39-.33,8.76,3.75,1.45,4.32-1.19,7.07-5,8.36S915,359.44,910.69,360.57Zm-.41-3.71,1.61,2c3.43-1.58,7.12-2.8,10.17-4.93,1.07-.75.59-3.73.81-5.68-2-.16-4.78-1.22-5.74-.31C914.44,350.48,912.51,353.83,910.28,356.86Z"/><path d="M963.56,360.6c.16,9,2.36,10.23,14.48,8.52-3.62,4.37-9.33,6-13.95,4-4.39-1.9-6.68-6.94-5.75-12.6,1.33-8.08,6-13.49,13.23-15.12,3.78-.86,7.5-.67,9.41,3.35,1.64,3.44-.43,6.95-5.26,8.67C971.87,358.78,967.8,359.52,963.56,360.6Zm-.13-3.57,1.28,1.61c3.26-1.26,6.87-2,9.62-4,1.35-1,1.09-4.18,1.56-6.37-2.24,0-5.32-.92-6.55.2C966.84,350.75,965.34,354.12,963.43,357Z"/><path d="M938.76,374.23c-4-9.93-.71-20.62-8-28,6.16-2.49,7.11-2,8.44,5.19.86,4.68,1.56,9.39,2.34,14.09l1.56.63c2.25-4.92,4.95-9.69,6.63-14.79,1.53-4.65,1-4.81,6.25-6.22C953.5,356.76,946.36,364.93,938.76,374.23Z"/><path d="M988.76,345.85c2.51-.85,6-2.51,7.44,2.55l10.12-3.88c-.65,3.78-1.13,6.64-1.76,10.29a11.59,11.59,0,0,0-1.67-2.15c-1.35-1-3-2.67-4.15-2.42A5.83,5.83,0,0,0,995,353.8c-1.64,6.21-2.8,12.56-4.15,18.92h-4.78c1.43-7.42,2.94-14.53,4.08-21.71C990.41,349.49,989.32,347.76,988.76,345.85Z"/><path class="cls-1" d="M749,661.18,736,648Z"/><path class="cls-1" d="M918,667.59c-9.28-.59-18.55-1.36-27.84-1.66a13.75,13.75,0,0,0-7.39,2.08c-7.18,4.54-13.43,9.66-15.94,18.71-2.81,10.06-12.5,13.22-20.8,8.09a127.43,127.43,0,0,1-22.47-17.15c-7.83-7.72-7.73-18-5-28.09,1.46-5.46,6-7.69,11.09-7.58,8.29.18,14.27-3.49,19.32-9.56,5.81-7,13.67-10.95,21.87-14.4,10-4.18,19.77-8.68,29.8-12.65a12.1,12.1,0,0,1,8.1-.36c8.13,3.2,16,7.05,23.95,10.7,1,.48,1.88,1.68,2.92,1.85,13.1,2.09,19.91,12.39,27.75,21.25,4.26,4.82,8,10.12,12,15.09,4.31,5.24,5.33,10.9,2.37,17-5,10.42-9.31,21.27-18.32,29.27-7.15,6.36-14,7.48-20.75,2.8-7.33-5-11.42-16.57-8.4-23.7,3.53-8.38,2-10.85-7.29-11.43-1.66-.11-3.33-.16-5-.23Z"/><path class="cls-1" d="M830.62,362c2.84-5,4.87-9.62,8-13.4,1.13-1.38,4.77-.71,7.27-1a31.34,31.34,0,0,1,.22,5.46c-.42,3.27-1.42,6.46-1.77,9.74-.5,4.69-3.81,7.19-7.53,6.76C834.68,369.36,833.05,365.19,830.62,362Z"/><path class="cls-1" d="M910.28,356.86c2.23-3,4.16-6.38,6.85-8.92,1-.91,3.77.15,5.74.31-.22,1.95.26,4.93-.81,5.68-3,2.13-6.74,3.35-10.17,4.93Z"/><path class="cls-1" d="M963.43,357c1.91-2.91,3.41-6.28,5.91-8.55,1.23-1.12,4.31-.2,6.55-.2-.47,2.19-.21,5.4-1.56,6.37-2.75,2-6.36,2.73-9.62,4Z"/></svg>